<mxfile host="65bd71144e" modified="2020-10-30T17:25:54.615Z" agent="5.0 (Macintosh; Intel Mac OS X 10_15_7) AppleWebKit/537.36 (KHTML, like Gecko) Code/1.50.1 Chrome/83.0.4103.122 Electron/9.2.1 Safari/537.36" version="13.6.5" etag="md2DUOK6_HekCIrLVHN0">
    <diagram id="PKH8GeNciSd_MVebx0g8" name="第 1 页">
        <mxGraphModel dx="495" dy="428" grid="1" gridSize="10" guides="1" tooltips="1" connect="1" arrows="1" fold="1" page="1" pageScale="1" pageWidth="827" pageHeight="1169" math="0" shadow="0">
            <root>
                <mxCell id="0"/>
                <mxCell id="1" parent="0"/>
                <mxCell id="6" value="" style="rounded=1;whiteSpace=wrap;html=1;" vertex="1" parent="1">
                    <mxGeometry x="80" y="70" width="190" height="280" as="geometry"/>
                </mxCell>
                <mxCell id="2" value="base" style="rounded=1;whiteSpace=wrap;html=1;" vertex="1" parent="1">
                    <mxGeometry x="105" y="300" width="140" height="30" as="geometry"/>
                </mxCell>
                <mxCell id="7" value="runtime" style="rounded=1;whiteSpace=wrap;html=1;" vertex="1" parent="1">
                    <mxGeometry x="105" y="260" width="140" height="30" as="geometry"/>
                </mxCell>
                <mxCell id="8" value="code" style="rounded=1;whiteSpace=wrap;html=1;" vertex="1" parent="1">
                    <mxGeometry x="105" y="220" width="140" height="30" as="geometry"/>
                </mxCell>
                <mxCell id="10" value="端口（可选）" style="rounded=1;whiteSpace=wrap;html=1;" vertex="1" parent="1">
                    <mxGeometry x="105" y="180" width="140" height="30" as="geometry"/>
                </mxCell>
                <mxCell id="11" value="运行入口命令" style="rounded=1;whiteSpace=wrap;html=1;" vertex="1" parent="1">
                    <mxGeometry x="105" y="140" width="140" height="30" as="geometry"/>
                </mxCell>
                <mxCell id="12" value="镜像组成" style="text;html=1;align=center;verticalAlign=middle;resizable=0;points=[];autosize=1;" vertex="1" parent="1">
                    <mxGeometry x="145" y="100" width="60" height="20" as="geometry"/>
                </mxCell>
            </root>
        </mxGraphModel>
    </diagram>
</mxfile>